<svg width="24" height="25" viewBox="0 0 24 25" fill="none" xmlns="http://www.w3.org/2000/svg">
<path d="M11.001 10.248H13.001V15.248H11.001V10.248ZM11 16.248H13V18.248H11V16.248Z" fill="black"/>
<path d="M13.7679 4.44799C13.4199 3.79299 12.7419 3.38599 11.9999 3.38599C11.2579 3.38599 10.5799 3.79299 10.2319 4.44899L2.89395 18.312C2.73112 18.6164 2.65046 18.958 2.65993 19.3031C2.6694 19.6483 2.76867 19.9849 2.94795 20.28C3.12465 20.5764 3.37559 20.8215 3.676 20.9913C3.97641 21.1611 4.3159 21.2495 4.66095 21.248H19.3389C20.0469 21.248 20.6879 20.886 21.0529 20.28C21.2319 19.9848 21.331 19.6482 21.3405 19.3031C21.35 18.9581 21.2695 18.6165 21.1069 18.312L13.7679 4.44799ZM4.66095 19.248L11.9999 5.38499L19.3439 19.248H4.66095Z" fill="#F7374E"/>
</svg>
