<svg width="60" height="60" viewBox="0 0 60 60" fill="none" xmlns="http://www.w3.org/2000/svg">
<path d="M25.5 12H34.5C34.5 10.8065 34.0259 9.66193 33.182 8.81802C32.3381 7.97411 31.1935 7.5 30 7.5C28.8065 7.5 27.6619 7.97411 26.818 8.81802C25.9741 9.66193 25.5 10.8065 25.5 12ZM22.5 12C22.5 10.0109 23.2902 8.10322 24.6967 6.6967C26.1032 5.29018 28.0109 4.5 30 4.5C31.9891 4.5 33.8968 5.29018 35.3033 6.6967C36.7098 8.10322 37.5 10.0109 37.5 12H52.5C52.8978 12 53.2794 12.158 53.5607 12.4393C53.842 12.7206 54 13.1022 54 13.5C54 13.8978 53.842 14.2794 53.5607 14.5607C53.2794 14.842 52.8978 15 52.5 15H49.338L45.756 46.032C45.5028 48.2256 44.452 50.2495 42.8036 51.7187C41.1552 53.1879 39.0241 53.9998 36.816 54H23.184C20.9759 53.9998 18.8448 53.1879 17.1964 51.7187C15.548 50.2495 14.4972 48.2256 14.244 46.032L10.662 15H7.5C7.10218 15 6.72064 14.842 6.43934 14.5607C6.15804 14.2794 6 13.8978 6 13.5C6 13.1022 6.15804 12.7206 6.43934 12.4393C6.72064 12.158 7.10218 12 7.5 12H22.5ZM17.223 45.69C17.3923 47.1522 18.0931 48.5011 19.1923 49.4802C20.2914 50.4593 21.712 51.0002 23.184 51H36.816C38.288 51.0002 39.7086 50.4593 40.8077 49.4802C41.9069 48.5011 42.6077 47.1522 42.777 45.69L46.317 15H13.683L17.223 45.69ZM25.5 22.5C25.8978 22.5 26.2794 22.658 26.5607 22.9393C26.842 23.2206 27 23.6022 27 24V42C27 42.3978 26.842 42.7794 26.5607 43.0607C26.2794 43.342 25.8978 43.5 25.5 43.5C25.1022 43.5 24.7206 43.342 24.4393 43.0607C24.158 42.7794 24 42.3978 24 42V24C24 23.6022 24.158 23.2206 24.4393 22.9393C24.7206 22.658 25.1022 22.5 25.5 22.5ZM36 24C36 23.6022 35.842 23.2206 35.5607 22.9393C35.2794 22.658 34.8978 22.5 34.5 22.5C34.1022 22.5 33.7206 22.658 33.4393 22.9393C33.158 23.2206 33 23.6022 33 24V42C33 42.3978 33.158 42.7794 33.4393 43.0607C33.7206 43.342 34.1022 43.5 34.5 43.5C34.8978 43.5 35.2794 43.342 35.5607 43.0607C35.842 42.7794 36 42.3978 36 42V24Z" fill="#870E14"/>
</svg>
