<svg width="34" height="30" viewBox="0 0 34 30" fill="none" xmlns="http://www.w3.org/2000/svg">
<path d="M17.4016 1.55574C17.4643 1.61045 17.52 1.67688 17.5656 1.75511L32.4769 27.3187C32.7827 27.8429 32.4063 28.5015 31.7995 28.5043L2.2051 28.636C1.59824 28.6387 1.21609 27.9835 1.51716 27.4566L16.2002 1.76121C16.4564 1.31295 17.0437 1.2436 17.4016 1.55574Z" stroke="#DDA338" stroke-miterlimit="10" stroke-linecap="round"/>
<path d="M16.8691 9.87976V21.0279" stroke="#DDA338" stroke-linecap="round"/>
<path d="M16.6562 24.086C16.6562 23.9977 16.7279 23.926 16.8162 23.926C16.9045 23.926 16.9761 23.9977 16.9761 24.086C16.9761 24.1743 16.9045 24.2459 16.8162 24.2459C16.7279 24.2459 16.6562 24.1743 16.6562 24.086Z" stroke="#DDA338"/>
</svg>
