<svg width="8" height="13" viewBox="0 0 8 13" fill="none" xmlns="http://www.w3.org/2000/svg">
<path d="M1.78901 12.3337C1.56973 12.3336 1.35538 12.2652 1.17307 12.1372C0.990763 12.0092 0.848671 11.8272 0.764762 11.6143C0.680853 11.4014 0.658895 11.1672 0.701661 10.9412C0.744428 10.7152 0.850001 10.5076 1.00503 10.3446L4.65657 6.50748L1.00503 2.67037C0.899123 2.56288 0.814646 2.4343 0.75653 2.29214C0.698415 2.14997 0.667825 1.99707 0.666546 1.84235C0.665266 1.68763 0.693324 1.5342 0.749079 1.39099C0.804835 1.24779 0.887172 1.11769 0.991288 1.00828C1.0954 0.898874 1.21921 0.812352 1.35549 0.753763C1.49177 0.695174 1.63778 0.665692 1.78502 0.667036C1.93226 0.668381 2.07776 0.700525 2.21305 0.761594C2.34834 0.822663 2.4707 0.911433 2.57299 1.02272L7.00851 5.68366C7.21639 5.90218 7.33317 6.19851 7.33317 6.50748C7.33317 6.81646 7.21639 7.11279 7.00851 7.33131L2.57299 11.9922C2.36508 12.2108 2.08308 12.3336 1.78901 12.3337Z" fill="#878787"/>
</svg>
