<svg width="14" height="14" viewBox="0 0 14 14" fill="none" xmlns="http://www.w3.org/2000/svg">
<g clip-path="url(#clip0_670_5796)">
<path d="M5.44947 10.9562L4.32306 10.654L4.78214 8.93958C4.09496 8.68614 3.45629 8.3168 2.89389 7.84758L1.63797 9.10408L0.812557 8.27867L2.06906 7.02275C1.35977 6.17328 0.883192 5.1542 0.685974 4.06525L1.83397 3.85583C2.27672 6.307 4.42106 8.16667 6.99997 8.16667C9.57831 8.16667 11.7232 6.307 12.166 3.85583L13.314 4.06467C13.117 5.15376 12.6406 6.17305 11.9315 7.02275L13.1874 8.27867L12.362 9.10408L11.1061 7.84758C10.5437 8.3168 9.90499 8.68614 9.21781 8.93958L9.67689 10.6546L8.55047 10.9562L8.09081 9.24117C7.36885 9.36488 6.6311 9.36488 5.90914 9.24117L5.44947 10.9562Z" fill="#333333"/>
</g>
<defs>
<clipPath id="clip0_670_5796">
<rect width="14" height="14" fill="white"/>
</clipPath>
</defs>
</svg>
