<svg width="8" height="13" viewBox="0 0 8 13" fill="none" xmlns="http://www.w3.org/2000/svg">
<path d="M6.21066 12.3337C5.91659 12.3336 5.63459 12.2108 5.42669 11.9922L0.991169 7.33131C0.783286 7.11279 0.666504 6.81646 0.666504 6.50748C0.666504 6.19851 0.783286 5.90218 0.991169 5.68366L5.42669 1.02272C5.52898 0.911433 5.65134 0.822663 5.78662 0.761594C5.92191 0.700525 6.06742 0.668381 6.21466 0.667036C6.36189 0.665692 6.50791 0.695174 6.64419 0.753763C6.78046 0.812352 6.90427 0.898874 7.00839 1.00828C7.1125 1.11769 7.19484 1.24779 7.2506 1.39099C7.30635 1.5342 7.33441 1.68763 7.33313 1.84235C7.33185 1.99707 7.30126 2.14997 7.24314 2.29214C7.18503 2.4343 7.10055 2.56288 6.99464 2.67037L3.3431 6.50748L6.99464 10.3446C7.14967 10.5076 7.25525 10.7152 7.29801 10.9412C7.34078 11.1672 7.31882 11.4014 7.23491 11.6143C7.151 11.8272 7.00891 12.0092 6.8266 12.1372C6.64429 12.2652 6.42995 12.3336 6.21066 12.3337Z" fill="#878787"/>
</svg>
