<svg width="25" height="24" viewBox="0 0 25 24" fill="none" xmlns="http://www.w3.org/2000/svg">
<path d="M12.0039 15C13.6608 15 15.0039 13.6569 15.0039 12C15.0039 10.3431 13.6608 9 12.0039 9C10.3471 9 9.00391 10.3431 9.00391 12C9.00391 13.6569 10.3471 15 12.0039 15Z" stroke="white" stroke-width="1.5" stroke-miterlimit="10" stroke-linecap="round" stroke-linejoin="round"/>
<path d="M2.00391 12.8799V11.1199C2.00391 10.0799 2.85391 9.21994 3.90391 9.21994C5.71391 9.21994 6.45391 7.93994 5.54391 6.36994C5.02391 5.46994 5.33391 4.29994 6.24391 3.77994L7.97391 2.78994C8.76391 2.31994 9.78391 2.59994 10.2539 3.38994L10.3639 3.57994C11.2639 5.14994 12.7439 5.14994 13.6539 3.57994L13.7639 3.38994C14.2339 2.59994 15.2539 2.31994 16.0439 2.78994L17.7739 3.77994C18.6839 4.29994 18.9939 5.46994 18.4739 6.36994C17.5639 7.93994 18.3039 9.21994 20.1139 9.21994C21.1539 9.21994 22.0139 10.0699 22.0139 11.1199V12.8799C22.0139 13.9199 21.1639 14.7799 20.1139 14.7799C18.3039 14.7799 17.5639 16.0599 18.4739 17.6299C18.9939 18.5399 18.6839 19.6999 17.7739 20.2199L16.0439 21.2099C15.2539 21.6799 14.2339 21.3999 13.7639 20.6099L13.6539 20.4199C12.7539 18.8499 11.2739 18.8499 10.3639 20.4199L10.2539 20.6099C9.78391 21.3999 8.76391 21.6799 7.97391 21.2099L6.24391 20.2199C5.33391 19.6999 5.02391 18.5299 5.54391 17.6299C6.45391 16.0599 5.71391 14.7799 3.90391 14.7799C2.85391 14.7799 2.00391 13.9199 2.00391 12.8799Z" stroke="white" stroke-width="1.5" stroke-miterlimit="10" stroke-linecap="round" stroke-linejoin="round"/>
</svg>
