<svg width="14" height="14" viewBox="0 0 14 14" fill="none" xmlns="http://www.w3.org/2000/svg">
<path fill-rule="evenodd" clip-rule="evenodd" d="M7.00002 4.66667C5.71136 4.66667 4.66669 5.71134 4.66669 7C4.66669 8.28866 5.71136 9.33333 7.00002 9.33333C8.28868 9.33333 9.33335 8.28866 9.33335 7C9.33335 5.71134 8.28868 4.66667 7.00002 4.66667ZM5.83335 7C5.83335 6.35567 6.35569 5.83333 7.00002 5.83333C7.64435 5.83333 8.16669 6.35567 8.16669 7C8.16669 7.64433 7.64435 8.16667 7.00002 8.16667C6.35569 8.16667 5.83335 7.64433 5.83335 7Z" fill="#272727"/>
<path fill-rule="evenodd" clip-rule="evenodd" d="M13.9382 6.73871C13.9383 6.73893 13.9384 6.73912 13.4167 7C13.9384 7.26087 13.9383 7.26107 13.9382 7.26128L13.9373 7.26316L13.9353 7.26714L13.9287 7.2801C13.9231 7.29092 13.9152 7.30607 13.9051 7.32524C13.8848 7.36359 13.8553 7.41812 13.8169 7.48651C13.74 7.62321 13.6268 7.81578 13.4783 8.04564C13.1821 8.50423 12.7419 9.11715 12.1652 9.7323C11.0224 10.9512 9.27473 12.25 7.00002 12.25C4.72531 12.25 2.97763 10.9512 1.83487 9.7323C1.25817 9.11715 0.817891 8.50423 0.521715 8.04564C0.373265 7.81578 0.260065 7.62321 0.183169 7.48651C0.1447 7.41812 0.115251 7.36359 0.0949589 7.32524C0.0848109 7.30607 0.0769466 7.29092 0.0713833 7.2801L0.0647636 7.26714L0.0627505 7.26316L0.0620687 7.2618C0.0619615 7.26159 0.0616036 7.26087 0.583353 7C0.0616036 6.73912 0.0617018 6.73893 0.061809 6.73871L0.0627505 6.73684L0.0647636 6.73286L0.0713833 6.7199C0.0769466 6.70908 0.0848109 6.69393 0.0949589 6.67476C0.115251 6.63641 0.1447 6.58188 0.183169 6.51349C0.260065 6.37679 0.373265 6.18422 0.521715 5.95436C0.817891 5.49577 1.25817 4.88285 1.83487 4.2677C2.97763 3.04876 4.72531 1.75 7.00002 1.75C9.27473 1.75 11.0224 3.04876 12.1652 4.2677C12.7419 4.88285 13.1821 5.49577 13.4783 5.95436C13.6268 6.18422 13.74 6.37679 13.8169 6.51349C13.8553 6.58188 13.8848 6.63641 13.9051 6.67476C13.9152 6.69393 13.9231 6.70908 13.9287 6.7199L13.9353 6.73286L13.9373 6.73684L13.9382 6.73871ZM1.50176 7.41269C1.39706 7.25057 1.31254 7.11017 1.24879 7C1.31254 6.88983 1.39706 6.74943 1.50176 6.58731C1.77069 6.1709 2.16895 5.61715 2.686 5.06563C3.73074 3.95124 5.1914 2.91667 7.00002 2.91667C8.80864 2.91667 10.2693 3.95124 11.314 5.06563C11.8311 5.61715 12.2293 6.1709 12.4983 6.58731C12.603 6.74943 12.6875 6.88983 12.7513 7C12.6875 7.11017 12.603 7.25057 12.4983 7.41269C12.2293 7.8291 11.8311 8.38285 11.314 8.93437C10.2693 10.0488 8.80864 11.0833 7.00002 11.0833C5.1914 11.0833 3.73074 10.0488 2.686 8.93437C2.16895 8.38285 1.77069 7.8291 1.50176 7.41269Z" fill="#272727"/>
<path d="M13.4167 7L13.9382 6.73871C14.0203 6.90294 14.0203 7.09706 13.9382 7.26128L13.4167 7Z" fill="#272727"/>
<path d="M0.061809 6.73871L0.583353 7L0.0616036 7.26087C-0.0205086 7.09665 -0.0203032 6.90294 0.061809 6.73871Z" fill="#272727"/>
</svg>
